# xmcd
#
# Track frame offsets:
#	150
#	15182
#	27621
#	48643
#	62782
#	72403
#	84619
#	98669
#	111246
#	122232
#	136820
#	146161
#	160972
#	171317
#	185902
#	195944
#	208107
#	221909
#
# Disc length: 3045 seconds
#
# Revision: 1
# Processed by: cddbd v1.5.2PL0 Copyright (c) Steve Scherf et al.
# Submitted via: audiograbber 1.83.01
#
DISCID=160be312
DTITLE=Various Artist - A Tribute to Hank Williams - Ramblin' Man
DYEAR=2006
DGENRE=Country
TTITLE0=Ike and The Capers - I'm Sorry For You My Friend
TTITLE1=Johnny Kansas - I Just Don't Like This Kind Of Living
TTITLE2=Hank Ray - Wedding Bells
TTITLE3=T. Nolan - Hank You Wrote Your Life In Songs
TTITLE4=Johnny Kansas - I'll Be A Bachelor Till I Die
TTITLE5=T. Nolan - I'll Never Ge Out Of This World alive
TTITLE6=Hank Ray - I Told A Lie To My Heart
TTITLE7=Chrome Daddies - Long Gone Daddy
TTITLE8=Johnny Kansas - It Takes A Long Time To Forget
TTITLE9=T.Nolan - My Hank Williams Mood
TTITLE10=Ike and The Capers - No Not Now
TTITLE11=Chrome Daddies - My Sweet Love Ain't Around
TTITLE12=Ike and The Capers - Never Again Will I Knock On Your Door
TTITLE13=Tommy Nolan - Ramblin' Man
TTITLE14=Chrome Daddies - Ramblin' On
TTITLE15=Tommy Nolan - The Blues Come Around
TTITLE16=Hank Ray - Somebody's Lonesome
TTITLE17=Hank Williams - Commercial Outro
EXTD=
EXTT0=
EXTT1=
EXTT2=
EXTT3=
EXTT4=
EXTT5=
EXTT6=
EXTT7=
EXTT8=
EXTT9=
EXTT10=
EXTT11=
EXTT12=
EXTT13=
EXTT14=
EXTT15=
EXTT16=
EXTT17=
PLAYORDER=
